<svg width="193" height="90" viewBox="0 0 193 90" fill="none" xmlns="http://www.w3.org/2000/svg">
<path d="M38.64 44.12L41.02 56.09C41.93 60.36 44.73 59.8 44.73 62.25C44.73 63.65 43.54 64 41.65 64H31.85C29.89 64 28.7 63.58 28.7 62.18C28.7 59.87 32.34 60.08 31.43 55.53L29.26 44.47C28.42 40.06 27.09 35.72 22.47 35.79C18.76 35.79 15.4 39.15 15.4 45.31V54.27C15.4 60.78 18.76 59.17 18.76 62.25C18.76 63.65 17.64 64 15.68 64H5.67C3.71 64 2.45 63.58 2.45 62.18C2.45 59.17 5.95 60.78 5.95 54.27V40.97C5.95 39.01 5.18 37.75 3.78 36.7C3.08 36.21 2.45 35.72 2.45 34.74C2.45 33.62 3.01 33.13 4.69 32.36C7.28 31.1 11.62 29.84 12.74 29.77C13.93 29.77 14.42 30.47 14.42 31.87V36.07C17.08 31.87 21.35 29.7 25.83 29.7C33.81 29.7 36.82 34.88 38.64 44.12ZM62.9202 64.7C53.6102 64.7 46.4702 58.47 46.4702 48.53C46.4702 38.03 54.6602 29.7 65.7902 29.7C75.4502 29.7 82.1002 36.84 82.1002 46.15C82.1002 56.72 74.0502 64.7 62.9202 64.7ZM65.9302 60.08C70.6902 60.08 72.7902 55.88 72.7902 51.05C72.7902 42.93 68.6602 34.32 62.6402 34.32C57.6002 34.32 55.7102 39.08 55.7102 44.05C55.7102 52.24 59.9102 60.08 65.9302 60.08ZM145.602 44.12L147.982 56.09C148.822 60.36 151.622 59.8 151.622 62.25C151.622 63.65 150.502 64 148.612 64H138.812C136.852 64 135.592 63.58 135.592 62.18C135.592 59.87 139.302 60.08 138.392 55.53L136.222 44.47C135.382 40.06 134.612 35.72 129.782 35.79C126.282 35.79 122.782 38.94 122.782 45.31V54.27C122.782 60.78 126.212 59.17 126.212 62.25C126.212 63.65 125.022 64 123.132 64H113.122C111.092 64 109.902 63.58 109.902 62.18C109.902 59.17 113.332 60.78 113.332 54.27V45.1C113.332 39.92 112.422 35.51 107.382 35.58C103.602 35.65 99.8922 39.15 99.8922 45.31V54.27C99.8922 60.78 103.252 59.17 103.252 62.25C103.252 63.65 102.132 64 100.172 64H90.1622C88.2022 64 86.9422 63.58 86.9422 62.18C86.9422 59.17 90.4422 60.78 90.4422 54.27V40.97C90.4422 39.01 89.6722 37.75 88.2722 36.7C87.5722 36.21 86.9422 35.72 86.9422 34.74C86.9422 33.62 87.5022 33.13 89.1822 32.36C91.7722 31.1 96.1122 29.84 97.2322 29.77C98.4222 29.77 98.9122 30.47 98.9122 31.87V36.42C101.642 31.94 105.982 29.7 110.532 29.7C116.202 29.7 119.772 32.15 121.522 36.42C124.182 32.01 128.382 29.7 133.072 29.7C141.192 29.7 143.712 34.88 145.602 44.12ZM188.264 31.8L188.194 41.39V53.57C188.194 58.68 192.254 57.56 192.254 59.59C192.254 60.57 191.554 61.34 190.014 62.18C187.914 63.3 183.994 64.63 182.034 64.63C180.074 64.63 179.234 63.51 179.094 60.57L179.024 58.68C176.154 62.53 171.674 64.63 167.894 64.63C160.334 64.63 156.064 59.52 156.064 50.56V41.39C156.064 36.56 152.704 37.05 152.704 34.95C152.704 34.04 153.194 33.55 154.874 32.78C157.814 31.38 162.854 29.7 163.974 29.7C165.094 29.7 165.584 30.33 165.584 31.8L165.514 41.39V50.07C165.514 55.39 166.984 58.75 171.184 58.68C174.894 58.61 178.744 54.69 178.744 48.74V41.39C178.744 36.56 175.384 37.05 175.384 34.95C175.384 34.04 175.874 33.55 177.554 32.78C180.494 31.38 185.534 29.7 186.654 29.7C187.774 29.7 188.264 30.33 188.264 31.8Z" fill="#3C3C3B"/>
<circle cx="65" cy="48" r="5" fill="#3C3C3B"/>
</svg>
